<svg width="13" height="10" viewBox="0 0 13 10" fill="none" xmlns="http://www.w3.org/2000/svg">
<path d="M1.25 10C0.90625 10 0.612083 9.87771 0.3675 9.63312C0.122917 9.38854 0.000416667 9.09417 0 8.75V1.25C0 0.90625 0.1225 0.612083 0.3675 0.3675C0.6125 0.122917 0.906667 0.000416667 1.25 0H11.25C11.5938 0 11.8881 0.1225 12.1331 0.3675C12.3781 0.6125 12.5004 0.906667 12.5 1.25V8.75C12.5 9.09375 12.3777 9.38812 12.1331 9.63312C11.8885 9.87812 11.5942 10.0004 11.25 10H1.25ZM6.25 5.625L1.25 2.5V8.75H11.25V2.5L6.25 5.625ZM6.25 4.375L11.25 1.25H1.25L6.25 4.375ZM1.25 2.5V1.25V8.75V2.5Z" fill="#999999"/>
</svg>
