<svg width="15" height="15" viewBox="0 0 15 15" fill="none" xmlns="http://www.w3.org/2000/svg">
<path d="M11.2863 8.92293L9.80341 8.76521C9.62903 8.74609 9.4526 8.76674 9.28735 8.82561C9.12211 8.88447 8.97235 8.98003 8.84934 9.10508L7.78432 10.1867C6.1219 9.35728 4.76555 8.02172 3.91059 6.3723L4.98139 5.28484C5.23028 5.03207 5.35007 4.68114 5.30649 4.32563L5.12598 2.85698C5.09071 2.57268 4.95212 2.31128 4.7366 2.12254C4.52108 1.93381 4.24368 1.83092 3.95721 1.83348L2.94807 1.84127C2.28892 1.84636 1.74484 2.39891 1.79076 3.05774C2.13839 8.03687 6.15316 11.9843 11.1312 12.2551C11.7907 12.2908 12.3348 11.7382 12.3297 11.0791L12.3219 10.07C12.3232 9.48077 11.876 8.98837 11.2863 8.92293Z" fill="#999999"/>
</svg>
