<svg width="17" height="17" viewBox="0 0 17 17" fill="none" xmlns="http://www.w3.org/2000/svg">
<g clip-path="url(#clip0_2059_5534)">
<path d="M8.19 1.47625C10.3767 1.47625 10.6361 1.48444 11.5001 1.52402C13.7196 1.62503 14.7563 2.67813 14.8573 4.88124C14.8969 5.7446 14.9044 6.00395 14.9044 8.19068C14.9044 10.3781 14.8962 10.6368 14.8573 11.5001C14.7557 13.7012 13.7217 14.7563 11.5001 14.8573C10.6361 14.8969 10.3781 14.9051 8.19 14.9051C6.00327 14.9051 5.74392 14.8969 4.88056 14.8573C2.65561 14.7557 1.62435 13.6978 1.52334 11.4994C1.48376 10.6361 1.47557 10.3774 1.47557 8.19C1.47557 6.00327 1.48444 5.7446 1.52334 4.88056C1.62503 2.67813 2.65902 1.62435 4.88056 1.52334C5.7446 1.48444 6.00327 1.47625 8.19 1.47625ZM8.19 0C5.96573 0 5.68727 0.009555 4.81367 0.04914C1.83934 0.18564 0.186323 1.83593 0.0498225 4.81299C0.009555 5.68727 0 5.96573 0 8.19C0 10.4143 0.009555 10.6934 0.04914 11.567C0.18564 14.5413 1.83593 16.1944 4.81299 16.3309C5.68727 16.3704 5.96573 16.38 8.19 16.38C10.4143 16.38 10.6934 16.3704 11.567 16.3309C14.5386 16.1944 16.1957 14.5441 16.3302 11.567C16.3704 10.6934 16.38 10.4143 16.38 8.19C16.38 5.96573 16.3704 5.68727 16.3309 4.81367C16.1971 1.84207 14.5448 0.186323 11.5677 0.0498225C10.6934 0.009555 10.4143 0 8.19 0ZM8.19 3.98444C5.86745 3.98444 3.98444 5.86745 3.98444 8.19C3.98444 10.5125 5.86745 12.3962 8.19 12.3962C10.5125 12.3962 12.3956 10.5132 12.3956 8.19C12.3956 5.86745 10.5125 3.98444 8.19 3.98444ZM8.19 10.92C6.68236 10.92 5.46 9.69833 5.46 8.19C5.46 6.68236 6.68236 5.46 8.19 5.46C9.69764 5.46 10.92 6.68236 10.92 8.19C10.92 9.69833 9.69764 10.92 8.19 10.92ZM12.5621 2.83579C12.0188 2.83579 11.5786 3.276 11.5786 3.81859C11.5786 4.36118 12.0188 4.80139 12.5621 4.80139C13.1047 4.80139 13.5442 4.36118 13.5442 3.81859C13.5442 3.276 13.1047 2.83579 12.5621 2.83579Z" fill="white"/>
</g>
<defs>
<clipPath id="clip0_2059_5534">
<rect width="16.38" height="16.38" fill="white"/>
</clipPath>
</defs>
</svg>
