<svg width="17" height="17" viewBox="0 0 17 17" fill="none" xmlns="http://www.w3.org/2000/svg">
<path d="M0.270001 5.63578H3.66563V16.9598H0.270001V5.63578ZM1.96875 0C2.35821 1.83068e-07 2.73892 0.119725 3.06272 0.344029C3.38652 0.568332 3.63886 0.887136 3.78782 1.26011C3.93677 1.63308 3.97565 2.04347 3.89953 2.43935C3.82342 2.83523 3.63572 3.19881 3.3602 3.48411C3.08468 3.76941 2.73371 3.9636 2.35168 4.04211C1.96966 4.12063 1.57375 4.07994 1.21404 3.9252C0.854334 3.77046 0.546987 3.50861 0.330883 3.17279C0.11478 2.83697 -0.000370023 2.44226 8.93268e-07 2.0386C0.000497865 1.49775 0.208138 0.979229 0.577297 0.596973C0.946455 0.214718 1.44693 -2.45283e-07 1.96875 0ZM5.79563 5.63578H9.05063V7.19048H9.09562C9.54938 6.30042 10.6556 5.36177 12.3075 5.36177C15.7463 5.35399 16.3838 7.69964 16.3838 10.741V16.9598H12.9881V11.4504C12.9881 10.1386 12.9656 8.44979 11.2238 8.44979C9.48188 8.44979 9.18563 9.88011 9.18563 11.3648V16.9598H5.79563V5.63578Z" fill="white"/>
</svg>
