<svg width="14" height="17" viewBox="0 0 14 17" fill="none" xmlns="http://www.w3.org/2000/svg">
<path fill-rule="evenodd" clip-rule="evenodd" d="M6.05167 16.7783C6.05167 16.7783 0 11.6817 0 6.66667C0 4.89856 0.702379 3.20286 1.95262 1.95262C3.20286 0.702379 4.89856 0 6.66667 0C8.43478 0 10.1305 0.702379 11.3807 1.95262C12.631 3.20286 13.3333 4.89856 13.3333 6.66667C13.3333 11.6817 7.28167 16.7783 7.28167 16.7783C6.945 17.0883 6.39083 17.085 6.05167 16.7783ZM6.66667 9.58333C7.04969 9.58333 7.42896 9.50789 7.78283 9.36132C8.13669 9.21474 8.45822 8.9999 8.72906 8.72906C8.9999 8.45822 9.21474 8.13669 9.36132 7.78283C9.50789 7.42896 9.58333 7.04969 9.58333 6.66667C9.58333 6.28364 9.50789 5.90437 9.36132 5.55051C9.21474 5.19664 8.9999 4.87511 8.72906 4.60427C8.45822 4.33343 8.13669 4.11859 7.78283 3.97202C7.42896 3.82544 7.04969 3.75 6.66667 3.75C5.89312 3.75 5.15125 4.05729 4.60427 4.60427C4.05729 5.15125 3.75 5.89312 3.75 6.66667C3.75 7.44022 4.05729 8.18208 4.60427 8.72906C5.15125 9.27604 5.89312 9.58333 6.66667 9.58333Z" fill="white"/>
</svg>
