<svg width="20" height="21" viewBox="0 0 20 21" fill="none" xmlns="http://www.w3.org/2000/svg">
<path d="M2.8125 16.875C2.34844 16.875 1.95131 16.7099 1.62113 16.3797C1.29094 16.0495 1.12556 15.6521 1.125 15.1875V5.0625C1.125 4.59844 1.29038 4.20131 1.62113 3.87112C1.95188 3.54094 2.349 3.37556 2.8125 3.375H16.3125C16.7766 3.375 17.174 3.54037 17.5047 3.87112C17.8355 4.20187 18.0006 4.599 18 5.0625V15.1875C18 15.6516 17.8349 16.049 17.5047 16.3797C17.1745 16.7105 16.7771 16.8756 16.3125 16.875H2.8125ZM9.5625 10.9687L2.8125 6.75V15.1875H16.3125V6.75L9.5625 10.9687ZM9.5625 9.28125L16.3125 5.0625H2.8125L9.5625 9.28125ZM2.8125 6.75V5.0625V15.1875V6.75Z" fill="white"/>
</svg>
