<svg width="14" height="14" viewBox="0 0 14 14" fill="none" xmlns="http://www.w3.org/2000/svg">
<path d="M4.66667 5.24998H9.33333M4.66667 7.58331H8.16667M10.5 2.33331C10.9641 2.33331 11.4092 2.51769 11.7374 2.84588C12.0656 3.17406 12.25 3.61918 12.25 4.08331V8.74998C12.25 9.21411 12.0656 9.65923 11.7374 9.98742C11.4092 10.3156 10.9641 10.5 10.5 10.5H7.58333L4.66667 12.25V10.5H3.5C3.03587 10.5 2.59075 10.3156 2.26256 9.98742C1.93437 9.65923 1.75 9.21411 1.75 8.74998V4.08331C1.75 3.61918 1.93437 3.17406 2.26256 2.84588C2.59075 2.51769 3.03587 2.33331 3.5 2.33331H10.5Z" stroke="#999999" stroke-linecap="round" stroke-linejoin="round"/>
</svg>
