<svg width="16" height="12" viewBox="0 0 16 12" fill="none" xmlns="http://www.w3.org/2000/svg">
<path fill-rule="evenodd" clip-rule="evenodd" d="M15.5382 5.74406C15.5366 5.54515 15.4561 5.355 15.3144 5.21544C15.1727 5.07588 14.9813 4.99834 14.7824 4.99987L0.782819 5.10798C0.583912 5.10951 0.393763 5.19 0.254201 5.33174C0.114639 5.47347 0.0370966 5.66484 0.0386326 5.86375C0.0401686 6.06265 0.120657 6.2528 0.262391 6.39236C0.404125 6.53193 0.595495 6.60947 0.794402 6.60793L14.794 6.49983C14.9929 6.49829 15.183 6.4178 15.3226 6.27607C15.4622 6.13433 15.5397 5.94297 15.5382 5.74406ZM15.4996 0.744208C15.498 0.545301 15.4175 0.355152 15.2758 0.21559C15.1341 0.0760277 14.9427 -0.00151438 14.7438 2.15843e-05L0.74421 0.108127C0.545303 0.109663 0.355154 0.190151 0.215592 0.331885C0.0760297 0.47362 -0.00151243 0.664989 2.35364e-05 0.863896C0.0015595 1.0628 0.0820477 1.25295 0.223782 1.39251C0.365516 1.53208 0.556886 1.60962 0.755793 1.60808L14.7554 1.49998C14.9543 1.49844 15.1444 1.41795 15.284 1.27622C15.4236 1.13448 15.5011 0.943114 15.4996 0.744208ZM15.5768 10.7439C15.5752 10.545 15.4948 10.3549 15.353 10.2153C15.2113 10.0757 15.0199 9.99819 14.821 9.99972L0.821428 10.1078C0.622521 10.1094 0.432372 10.1899 0.29281 10.3316C0.153248 10.4733 0.0757057 10.6647 0.0772417 10.8636C0.0787776 11.0625 0.159266 11.2527 0.301 11.3922C0.442734 11.5318 0.634104 11.6093 0.833011 11.6078L14.8326 11.4997C15.0315 11.4981 15.2216 11.4177 15.3612 11.2759C15.5008 11.1342 15.5783 10.9428 15.5768 10.7439Z" fill="white"/>
</svg>
