<svg width="13" height="12" viewBox="0 0 13 12" fill="none" xmlns="http://www.w3.org/2000/svg">
<path d="M10.8552 8.10228L9.1604 7.92203C8.96112 7.90018 8.75948 7.92378 8.57062 7.99106C8.38177 8.05834 8.21062 8.16754 8.07004 8.31046L6.85288 9.54656C4.95296 8.59869 3.40286 7.07234 2.42575 5.18728L3.64952 3.94446C3.93397 3.65559 4.07088 3.25452 4.02107 2.84823L3.81477 1.16977C3.77446 0.844858 3.61608 0.546112 3.36977 0.330416C3.12346 0.114719 2.80642 -0.00286495 2.47903 5.23112e-05L1.32573 0.00895813C0.572422 0.0147752 -0.0493871 0.646262 0.00309525 1.39921C0.400381 7.08965 4.98869 11.601 10.6779 11.9104C11.4316 11.9513 12.0534 11.3198 12.0476 10.5665L12.0387 9.41318C12.0401 8.73982 11.5291 8.17708 10.8552 8.10228Z" fill="white"/>
</svg>
